<?xml version="1.0" encoding="utf-8"?>
<!-- Generator: Adobe Illustrator 22.1.0, SVG Export Plug-In . SVG Version: 6.00 Build 0)  -->
<svg version="1.1" id="Layer_1" xmlns="http://www.w3.org/2000/svg" xmlns:xlink="http://www.w3.org/1999/xlink" x="0px" y="0px"
	 viewBox="0 0 24 24" style="enable-background:new 0 0 24 24;" xml:space="preserve">
<style type="text/css">
	.st0{fill:none;}
	.st1{fill:#555555;}
</style>
<g>
	<path class="st0" d="M0,0h24v24H0V0z"/>
	<path class="st1" d="M19.4,11.4l-7.7,7.7c-1.6,1.6-4.2,1.8-5.8,0.3c-1.8-1.6-1.8-4.3-0.2-6l9-9c1-1,2.5-1.1,3.6-0.3
		c1.2,1,1.3,2.8,0.2,3.8l-7.7,7.7c-0.4,0.4-1.1,0.4-1.5,0c-0.4-0.4-0.4-1.1,0-1.5l6.4-6.4C16,7.5,16,7,15.7,6.7l0,0
		c-0.3-0.3-0.8-0.3-1.1,0l-6.3,6.3c-1,1-1.1,2.5-0.3,3.6c1,1.2,2.8,1.3,3.8,0.2l7.5-7.5C21,7.6,21.2,5,19.7,3.4
		c-1.6-1.8-4.3-1.8-6-0.2l-8.9,8.9c-2.1,2.1-2.4,5.5-0.5,7.8c2.2,2.6,6,2.8,8.4,0.4l7.8-7.8c0.3-0.3,0.3-0.8,0-1.1l0,0
		C20.2,11.1,19.7,11.1,19.4,11.4z"/>
</g>
</svg>
