<?xml version="1.0" encoding="utf-8"?>
<!-- Generator: Adobe Illustrator 22.1.0, SVG Export Plug-In . SVG Version: 6.00 Build 0)  -->
<svg version="1.1" id="Layer_1" xmlns="http://www.w3.org/2000/svg" xmlns:xlink="http://www.w3.org/1999/xlink" x="0px" y="0px"
	 viewBox="0 0 42 42" style="enable-background:new 0 0 42 42;" xml:space="preserve">
<style type="text/css">
	.st0{fill:#555555;}
	.st1{fill:#FCFCFC;}
</style>
<g>
	<path class="st0" d="M42,21c0,11.6-9.4,21-21,21S0,32.6,0,21S9.4,0,21,0S42,9.4,42,21z"/>
	<path class="st1" d="M21,18.6c2,0,3.6,1.6,3.6,3.6S23,25.8,21,25.8s-3.6-1.6-3.6-3.6S19,18.6,21,18.6z M30.6,12.6h-3.8L25.3,11
		c-0.4-0.5-1.1-0.8-1.8-0.8h-5.1c-0.7,0-1.3,0.3-1.8,0.8l-1.5,1.6h-3.8C10.1,12.6,9,13.7,9,15v14.4c0,1.3,1.1,2.4,2.4,2.4h19.2
		c1.3,0,2.4-1.1,2.4-2.4V15C33,13.7,31.9,12.6,30.6,12.6z M21,28.2c-3.3,0-6-2.7-6-6s2.7-6,6-6s6,2.7,6,6S24.3,28.2,21,28.2z"/>
</g>
</svg>
