<?xml version="1.0" encoding="utf-8"?>
<!-- Generator: Adobe Illustrator 22.1.0, SVG Export Plug-In . SVG Version: 6.00 Build 0)  -->
<svg version="1.1" id="Layer_1" xmlns="http://www.w3.org/2000/svg" xmlns:xlink="http://www.w3.org/1999/xlink" x="0px" y="0px"
	 viewBox="0 0 42 42" style="enable-background:new 0 0 42 42;" xml:space="preserve">
<style type="text/css">
	.st0{fill:none;}
	.st1{fill:#0068B3;}
</style>
<g>
	<path class="st0" d="M0,0h42v42H0V0z"/>
	<path class="st1" d="M34.6,9.1h-5.4l-3.1-3.4H15.9l-3.1,3.4H7.4C5.5,9.1,4,10.6,4,12.5v20.4c0,1.9,1.5,3.4,3.4,3.4h27.2
		c1.9,0,3.4-1.5,3.4-3.4V12.5C38,10.6,36.5,9.1,34.6,9.1z M34.6,32.9H7.4V12.5h6.9l3.1-3.4h7.2l3.1,3.4h6.9V32.9z M21,14.2
		c-4.7,0-8.5,3.8-8.5,8.5s3.8,8.5,8.5,8.5s8.5-3.8,8.5-8.5S25.7,14.2,21,14.2z M21,27.8c-2.8,0-5.1-2.3-5.1-5.1s2.3-5.1,5.1-5.1
		s5.1,2.3,5.1,5.1S23.8,27.8,21,27.8z"/>
</g>
</svg>
