<?xml version="1.0" encoding="utf-8"?>
<!-- Generator: Adobe Illustrator 22.1.0, SVG Export Plug-In . SVG Version: 6.00 Build 0)  -->
<svg version="1.1" id="Layer_1" xmlns="http://www.w3.org/2000/svg" xmlns:xlink="http://www.w3.org/1999/xlink" x="0px" y="0px"
	 viewBox="0 0 34 34" style="enable-background:new 0 0 34 34;" xml:space="preserve">
<style type="text/css">
	.st0{fill:#555555;}
</style>
<path class="st0" d="M24,11.4L22.6,10L17,15.6L11.4,10L10,11.4l5.6,5.6L10,22.6l1.4,1.4l5.6-5.6l5.6,5.6l1.4-1.4L18.4,17L24,11.4z
	 M17,2c8.3,0,15,6.7,15,15s-6.7,15-15,15S2,25.3,2,17S8.7,2,17,2 M17,0C7.6,0,0,7.6,0,17s7.6,17,17,17s17-7.6,17-17S26.4,0,17,0
	L17,0z"/>
</svg>
