<?xml version="1.0" encoding="utf-8"?>
<!-- Generator: Adobe Illustrator 22.1.0, SVG Export Plug-In . SVG Version: 6.00 Build 0)  -->
<svg version="1.1" id="Capa_1" xmlns="http://www.w3.org/2000/svg" xmlns:xlink="http://www.w3.org/1999/xlink" x="0px" y="0px"
	 viewBox="0 0 60 60" style="enable-background:new 0 0 60 60;" xml:space="preserve">
<style type="text/css">
	.st0{fill:none;}
	.st1{fill:#FCFCFC;}
</style>
<g>
	<path class="st0" d="M0,0h60v60H0V0z"/>
	<path class="st1" d="M40.1,13.5L5.9,13.5c-3.3,0-5.9,2.7-5.9,5.9v21.1c0,3.3,2.7,5.9,5.9,5.9H12v10c0,0.4,0.3,0.8,0.6,0.9
		c0.1,0,0.2,0.1,0.4,0.1c0.3,0,0.5-0.1,0.7-0.3l9.7-10.7l16.6-0.1c3.3,0,5.9-2.7,5.9-5.9V19.4C46,16.1,43.3,13.5,40.1,13.5z
		 M10,23.5h13c0.6,0,1,0.4,1,1s-0.4,1-1,1H10c-0.6,0-1-0.4-1-1S9.4,23.5,10,23.5z M36,37.5H10c-0.6,0-1-0.4-1-1s0.4-1,1-1h26
		c0.6,0,1,0.4,1,1S36.6,37.5,36,37.5z M36,31.5H10c-0.6,0-1-0.4-1-1s0.4-1,1-1h26c0.6,0,1,0.4,1,1S36.6,31.5,36,31.5z M54.1,2.5
		L19.9,2.5c-3.3,0-5.9,2.7-5.9,5.9v3.1l26.1-0.1c4.4,0,7.9,3.6,7.9,7.9v21.1v0.1v2.1l3.3,3.6c0.2,0.2,0.5,0.3,0.7,0.3
		c0.1,0,0.2,0,0.4-0.1c0.4-0.1,0.6-0.5,0.6-0.9v-10h1.1c3.3,0,5.9-2.7,5.9-5.9V8.5C60,5.2,57.3,2.5,54.1,2.5z"/>
</g>
</svg>
