<?xml version="1.0" encoding="utf-8"?>
<!-- Generator: Adobe Illustrator 22.1.0, SVG Export Plug-In . SVG Version: 6.00 Build 0)  -->
<svg version="1.1" id="Layer_1" xmlns="http://www.w3.org/2000/svg" xmlns:xlink="http://www.w3.org/1999/xlink" x="0px" y="0px"
	 viewBox="0 0 42 42" style="enable-background:new 0 0 42 42;" xml:space="preserve">
<style type="text/css">
	.st0{fill:none;}
	.st1{fill:#0068B3;}
</style>
<g>
	<path class="st0" d="M0,0h42v42H0V0z"/>
	<path class="st1" d="M36,9.5c-0.1-0.2-0.2-0.4-0.3-0.6c-0.2-0.4-0.6-0.7-0.9-0.9c-0.2-0.1-0.4-0.2-0.6-0.3
		c-0.4-0.2-0.9-0.3-1.3-0.3h-1.7V4h-3.4v3.4H14.2V4h-3.4v3.4H9.1C8.4,7.4,7.7,7.6,7.2,8C6.8,8.2,6.5,8.5,6.3,8.9
		C6.2,9.1,6.1,9.3,6,9.5c-0.2,0.4-0.3,0.8-0.3,1.3v23.8c0,1.9,1.5,3.4,3.4,3.4h23.8c0.5,0,0.9-0.1,1.3-0.3c0.2-0.1,0.4-0.2,0.6-0.3
		c0.4-0.2,0.7-0.6,0.9-0.9c0.4-0.5,0.6-1.2,0.6-1.9V10.8C36.3,10.3,36.2,9.9,36,9.5z M9.1,34.6V10.8h23.8v23.8H9.1z M21,24.2
		c-3.5,0-10.2,1.8-10.2,6.1v2.6h20.4v-2.6C31.2,26,24.5,24.2,21,24.2z M14.7,29.5c1.2-1,4-1.9,6.3-1.9s5.1,1,6.3,1.9H14.7z M21,22.7
		c2.8,0,5.1-2.3,5.1-5.1s-2.3-5.1-5.1-5.1s-5.1,2.3-5.1,5.1S18.2,22.7,21,22.7z M21,15.9c0.9,0,1.7,0.8,1.7,1.7
		c0,0.9-0.8,1.7-1.7,1.7c-0.9,0-1.7-0.8-1.7-1.7C19.3,16.7,20.1,15.9,21,15.9z"/>
</g>
</svg>
