<?xml version="1.0" encoding="utf-8"?>
<!-- Generator: Adobe Illustrator 22.1.0, SVG Export Plug-In . SVG Version: 6.00 Build 0)  -->
<svg version="1.1" id="Layer_1" xmlns="http://www.w3.org/2000/svg" xmlns:xlink="http://www.w3.org/1999/xlink" x="0px" y="0px"
	 viewBox="0 0 34 34" style="enable-background:new 0 0 34 34;" xml:space="preserve">
<style type="text/css">
	.st0{fill:#555555;}
</style>
<g>
	<path class="st0" d="M17,1.6c8.5,0,15.4,6.9,15.4,15.4S25.5,32.4,17,32.4S1.6,25.5,1.6,17S8.5,1.6,17,1.6 M17,0C7.6,0,0,7.6,0,17
		s7.6,17,17,17s17-7.6,17-17S26.4,0,17,0L17,0z M23.5,17l-1.1-1.1l-4.5,4.5v-9.9h-1.6v9.9l-4.5-4.5L10.5,17l6.5,6.5L23.5,17z"/>
</g>
</svg>
