<?xml version="1.0" encoding="utf-8"?>
<!-- Generator: Adobe Illustrator 22.1.0, SVG Export Plug-In . SVG Version: 6.00 Build 0)  -->
<svg version="1.1" id="Layer_1" xmlns="http://www.w3.org/2000/svg" xmlns:xlink="http://www.w3.org/1999/xlink" x="0px" y="0px"
	 viewBox="0 0 62 62" style="enable-background:new 0 0 62 62;" xml:space="preserve">
<style type="text/css">
	.st0{fill:#FCFCFC;}
	.st1{opacity:0.5;fill:#0F0F0F;}
</style>
<g id="group-icon" transform="translate(-11 -157)">
	<path class="st0" d="M42,157c17.1,0,31,13.9,31,31s-13.9,31-31,31s-31-13.9-31-31S24.9,157,42,157z"/>
	<path class="st1" d="M43.3,182.5c0-0.2,0-0.4,0-0.6c0.2-2.1,2-3.7,4.1-3.5c2.1,0.2,3.7,2,3.5,4.1c0,0,0,0.1,0,0.1
		c0,2.1-1.7,3.9-3.8,4c0,0-0.1,0-0.1,0C44.8,186.5,43.1,184.7,43.3,182.5z M36.8,186.6c0,0,0.1,0,0.1,0c2.1,0,3.9-1.8,3.8-4
		c0,0,0-0.1,0-0.1c0.1-2.1-1.5-4-3.7-4.1c0,0-0.1,0-0.1,0c-2.1,0-3.9,1.8-3.8,4c0,0,0,0.1,0,0.1C33,184.7,34.7,186.5,36.8,186.6z
		 M36.9,189.4c-2.9,0-8.9,1.6-8.9,4.8v3.4h17.7v-3.4C45.8,191,39.8,189.4,36.9,189.4z M47.1,189.4c-0.4,0-0.9,0-1.3,0.1
		c1.6,1,2.5,2.8,2.5,4.7v3.4h7.6v-3.4C55.9,191,50,189.4,47.1,189.4z"/>
</g>
</svg>
