<?xml version="1.0" encoding="utf-8"?>
<!-- Generator: Adobe Illustrator 22.1.0, SVG Export Plug-In . SVG Version: 6.00 Build 0)  -->
<svg version="1.1" id="Layer_1" xmlns="http://www.w3.org/2000/svg" xmlns:xlink="http://www.w3.org/1999/xlink" x="0px" y="0px"
	 viewBox="0 0 42 42" style="enable-background:new 0 0 42 42;" xml:space="preserve">
<style type="text/css">
	.st0{fill:none;}
	.st1{fill:#0068B3;}
</style>
<g>
	<path class="st0" d="M0,0h42v42H0V0z"/>
	<path class="st1" d="M21,4C14.4,4,9.1,9.3,9.1,15.9C9.1,24.8,21,38,21,38s11.9-13.2,11.9-22.1C32.9,9.3,27.6,4,21,4z M12.5,15.9
		c0-4.7,3.8-8.5,8.5-8.5s8.5,3.8,8.5,8.5c0,4.9-4.9,12.2-8.5,16.8C17.5,28.2,12.5,20.7,12.5,15.9z M21,11.6c2.3,0,4.3,1.9,4.3,4.3
		s-1.9,4.3-4.3,4.3s-4.3-1.9-4.3-4.3S18.7,11.6,21,11.6z"/>
</g>
</svg>
