<?xml version="1.0" encoding="utf-8"?>
<!-- Generator: Adobe Illustrator 22.1.0, SVG Export Plug-In . SVG Version: 6.00 Build 0)  -->
<svg version="1.1" id="Layer_1" xmlns="http://www.w3.org/2000/svg" xmlns:xlink="http://www.w3.org/1999/xlink" x="0px" y="0px"
	 viewBox="0 0 24 24" style="enable-background:new 0 0 24 24;" xml:space="preserve">
<style type="text/css">
	.st0{fill:none;}
	.st1{fill:#555555;}
</style>
<g>
	<path class="st0" d="M24,24H0V0h24V24z"/>
	<path class="st1" d="M20.6,6H3.4C2.6,6,2,6.6,2,7.4v9.1C2,17.4,2.6,18,3.4,18h17.1c0.8,0,1.4-0.6,1.4-1.4V7.4C22,6.6,21.4,6,20.6,6
		z M13.3,15.7l-2.5,0V12l-1.9,2.4L7,12v3.8H4.5V8.3H7l1.9,2.5l1.9-2.5l2.5,0V15.7z M17,16.4L13.9,12h1.9V8.3h2.5V12h1.9L17,16.4z"/>
</g>
</svg>
