<?xml version="1.0" encoding="utf-8"?>
<!-- Generator: Adobe Illustrator 22.1.0, SVG Export Plug-In . SVG Version: 6.00 Build 0)  -->
<svg version="1.1" id="Layer_1" xmlns="http://www.w3.org/2000/svg" xmlns:xlink="http://www.w3.org/1999/xlink" x="0px" y="0px"
	 viewBox="0 0 42 42" style="enable-background:new 0 0 42 42;" xml:space="preserve">
<style type="text/css">
	.st0{fill:#FCFCFC;}
	.st1{fill:#555555;}
</style>
<g>
	<path class="st0" d="M21,41C10,41,1,32,1,21S10,1,21,1s20,9,20,20S32,41,21,41z"/>
	<path class="st1" d="M21,2c10.5,0,19,8.5,19,19s-8.5,19-19,19S2,31.5,2,21S10.5,2,21,2 M21,0C9.4,0,0,9.4,0,21s9.4,21,21,21
		s21-9.4,21-21S32.6,0,21,0L21,0z M25.6,13.1L21,17.7l-4.6-4.6L15,14.5l6,6l6-6L25.6,13.1z M25.6,21.5L21,26.1l-4.6-4.6L15,22.9l6,6
		l6-6L25.6,21.5z"/>
</g>
</svg>
